<svg xmlns="http://www.w3.org/2000/svg" xmlns:xlink="http://www.w3.org/1999/xlink" width="540" zoomAndPan="magnify" viewBox="0 0 404.88 329.999987" height="440" preserveAspectRatio="xMidYMid meet" version="1.0"><defs><clipPath id="1607a38927"><path d="M 188 8.191406 L 212 8.191406 L 212 29 L 188 29 Z M 188 8.191406 " clip-rule="nonzero"/></clipPath></defs><path fill="#26285d" d="M 51.898438 279.480469 C 51.898438 279.480469 48.054688 281.984375 46.070312 287.113281 C 40.871094 300.539062 58.707031 295.300781 64.394531 290.414062 C 66.714844 288.417969 67.722656 275.390625 62.347656 274.136719 C 60.25 273.648438 51.898438 279.480469 51.898438 279.480469 " fill-opacity="1" fill-rule="nonzero"/><path fill="#f68c82" d="M 45.664062 110.804688 C 45.664062 110.804688 49.140625 123.441406 58.164062 137.023438 C 58.164062 137.023438 62.8125 145.75 55.835938 144.332031 C 48.851562 142.917969 33.816406 124.789062 32.222656 117.941406 C 30.625 111.085938 37.375 95.519531 45.664062 110.804688 " fill-opacity="1" fill-rule="nonzero"/><path fill="#26285d" d="M 81.015625 277.9375 C 81.015625 277.9375 79.707031 278.484375 79.65625 278.898438 C 79.617188 279.324219 78.574219 284.886719 78.824219 285.890625 C 79.082031 286.894531 94.460938 290.320312 94.460938 290.320312 C 94.460938 290.320312 105.472656 291.917969 111.179688 289.144531 C 112.480469 288.511719 111.722656 287.417969 111.324219 287.042969 C 103.59375 279.703125 90.160156 275.84375 90.160156 275.84375 L 81.015625 277.9375 " fill-opacity="1" fill-rule="nonzero"/><path fill="#f68c82" d="M 61.761719 272.644531 C 61.761719 272.644531 60.9375 281.269531 60.972656 281.433594 C 61.285156 282.765625 64.996094 283.113281 66.171875 282.199219 L 68.925781 274.035156 L 61.761719 272.644531 " fill-opacity="1" fill-rule="nonzero"/><path fill="#f68c82" d="M 81.144531 270.753906 C 81.144531 270.753906 80.398438 279.332031 80.445312 279.550781 C 80.738281 280.890625 84.28125 281.390625 85.449219 280.464844 L 87.667969 271.945312 L 81.144531 270.753906 " fill-opacity="1" fill-rule="nonzero"/><path fill="#26285d" d="M 113.214844 140.386719 C 112.210938 161.59375 110.292969 192.816406 107.152344 210.738281 C 107.152344 210.738281 87.347656 205.351562 86.234375 198.523438 C 85.515625 194.089844 88.691406 162.167969 91 140.386719 L 113.214844 140.386719 " fill-opacity="1" fill-rule="nonzero"/><path fill="#2e3192" d="M 106.1875 140.386719 C 100.21875 153.363281 91.875 167.074219 91.875 167.351562 C 80.660156 218.992188 70.960938 272.578125 67.386719 283.363281 C 65.90625 287.851562 49.472656 280.9375 49.472656 280.9375 C 51.074219 243.605469 56.269531 243.359375 66.136719 140.386719 L 106.1875 140.386719 " fill-opacity="1" fill-rule="nonzero"/><path fill="#f7981a" d="M 79.867188 158.667969 C 79.867188 158.667969 76.316406 193.371094 71.960938 191.191406 C 71.292969 190.859375 51.769531 190.195312 51.453125 189.636719 C 51.136719 189.078125 56.230469 163.679688 58.25 160.671875 L 79.867188 158.667969 " fill-opacity="1" fill-rule="nonzero"/><path fill="#f7981a" d="M 75.898438 151.925781 C 75.898438 152.59375 70.324219 198.039062 70.324219 198.039062 L 65.648438 198.039062 L 72 151.925781 L 75.898438 151.925781 " fill-opacity="1" fill-rule="nonzero"/><path fill="#ffffff" d="M 76.363281 166.578125 L 73.144531 178.796875 L 55.703125 174.980469 L 60.027344 162.082031 L 76.363281 166.578125 " fill-opacity="1" fill-rule="nonzero"/><path fill="#f7981a" d="M 98.332031 147.859375 C 98.332031 147.859375 101.613281 179.886719 105.628906 177.875 C 106.246094 177.566406 124.257812 176.949219 124.550781 176.4375 C 124.847656 175.921875 120.144531 152.484375 118.285156 149.710938 L 98.332031 147.859375 " fill-opacity="1" fill-rule="nonzero"/><path fill="#f7981a" d="M 100.632812 162.910156 C 100.632812 162.910156 103.910156 194.941406 107.929688 192.929688 C 108.546875 192.621094 123.796875 191.214844 124.09375 190.703125 C 124.386719 190.191406 119.871094 167.710938 118.003906 164.933594 L 100.632812 162.910156 " fill-opacity="1" fill-rule="nonzero"/><path fill="#26285d" d="M 91.226562 195.359375 C 91.226562 195.359375 87.144531 194.359375 86.359375 196.566406 C 85.574219 198.757812 80.378906 265.5625 79.257812 281.359375 C 79.257812 281.359375 95.1875 283.703125 97.316406 280.9375 C 100.589844 276.691406 107.152344 210.738281 107.152344 210.738281 L 91.226562 195.359375 " fill-opacity="1" fill-rule="nonzero"/><path fill="#e5e4e4" d="M 75.765625 70.050781 C 75.765625 70.050781 59.484375 71.289062 33.515625 106.769531 C 33.515625 106.769531 30.90625 110.464844 42.023438 113.40625 C 48.792969 115.199219 57.167969 105.304688 75.988281 88.355469 C 75.988281 88.355469 81.003906 69.0625 75.765625 70.050781 " fill-opacity="1" fill-rule="nonzero"/><path fill="#2e3192" d="M 103.300781 39.441406 C 103.199219 42.265625 102.761719 45.28125 101.558594 47.347656 L 99.113281 38.71875 C 100.488281 39.019531 101.890625 39.257812 103.300781 39.441406 " fill-opacity="1" fill-rule="nonzero"/><path fill="#e5e4e4" d="M 64.578125 75.09375 C 64.578125 75.09375 85.621094 66.691406 88.976562 66.421875 L 111.453125 74.171875 C 111.453125 74.171875 114.109375 131.875 113.851562 137.023438 C 107.632812 137.542969 94.453125 141.335938 88.152344 141.46875 C 84.90625 141.53125 78.316406 140.890625 72.097656 138.902344 C 70.089844 131.71875 62.535156 87.261719 64.578125 75.09375 " fill-opacity="1" fill-rule="nonzero"/><path fill="#bdbcbc" d="M 109.898438 72.363281 C 109.898438 72.363281 125.289062 79.253906 137.277344 121.5625 C 137.277344 121.5625 125.402344 127.460938 121.628906 121.5625 C 117.851562 115.664062 113.691406 109.140625 101.953125 86.695312 C 101.953125 86.695312 105.332031 69.605469 109.898438 72.363281 " fill-opacity="1" fill-rule="nonzero"/><path fill="#f7981a" d="M 111.453125 137.710938 L 67.15625 135.125 C 67.15625 135.125 68.839844 144.824219 69.160156 144.96875 C 69.480469 145.113281 88.199219 149.269531 88.199219 149.269531 L 107.21875 146.117188 L 111.453125 137.710938 " fill-opacity="1" fill-rule="nonzero"/><path fill="#fab43d" d="M 99.113281 69.097656 L 110.800781 72.058594 L 118.734375 168.640625 L 93.332031 173.5 L 99.113281 69.097656 " fill-opacity="1" fill-rule="nonzero"/><path fill="#fab43d" d="M 77.464844 68.632812 L 63.191406 74.988281 L 57.253906 168.640625 L 82.660156 173.5 L 77.464844 68.632812 " fill-opacity="1" fill-rule="nonzero"/><path fill="#ffffff" d="M 115.816406 119.371094 L 116.453125 129.394531 L 96.820312 129.394531 L 97.570312 119.371094 L 115.816406 119.371094 " fill-opacity="1" fill-rule="nonzero"/><path fill="#ffffff" d="M 95.433594 152.789062 L 96.394531 139.867188 L 117.476562 139.867188 L 118.292969 152.789062 L 95.433594 152.789062 " fill-opacity="1" fill-rule="nonzero"/><path fill="#ffffff" d="M 77.75 119.371094 L 78.496094 129.394531 L 58.867188 129.394531 L 59.5 119.371094 L 77.75 119.371094 " fill-opacity="1" fill-rule="nonzero"/><path fill="#ffffff" d="M 57.253906 152.789062 L 58.070312 139.867188 L 79.144531 139.867188 L 80.113281 152.789062 L 57.253906 152.789062 " fill-opacity="1" fill-rule="nonzero"/><path fill="#e66f64" d="M 81.410156 58.417969 C 81.25 58.003906 94.746094 58.890625 94.746094 58.890625 C 94.746094 58.890625 93.789062 67.492188 94.96875 70.164062 L 88.191406 81.71875 C 88.191406 81.71875 82.84375 71.917969 81.6875 69.738281 C 81.6875 69.738281 83.628906 64.316406 81.410156 58.417969 " fill-opacity="1" fill-rule="nonzero"/><path fill="#f68c82" d="M 97.949219 61.054688 C 97.949219 61.054688 92.402344 69.574219 83.011719 63.289062 C 75.882812 58.523438 69.714844 34.105469 73.601562 29.675781 C 77.488281 25.242188 95.511719 24.375 100.007812 33.472656 C 103.511719 40.589844 101.949219 54.945312 97.949219 61.054688 " fill-opacity="1" fill-rule="nonzero"/><path fill="#2e3192" d="M 96.324219 40.945312 C 96.324219 40.945312 91.601562 47.257812 80.054688 48.226562 C 80.054688 48.226562 86.410156 39.667969 88.191406 38.859375 C 89.964844 38.050781 96.324219 40.945312 96.324219 40.945312 " fill-opacity="1" fill-rule="nonzero"/><path fill="#2e3192" d="M 101.207031 37.796875 C 101.207031 37.796875 99.789062 45.546875 89.878906 51.550781 C 89.878906 51.550781 91.765625 41.0625 92.996094 39.546875 C 94.230469 38.03125 101.207031 37.796875 101.207031 37.796875 " fill-opacity="1" fill-rule="nonzero"/><path fill="#2e3192" d="M 82.210938 36.578125 C 82.210938 36.578125 82.847656 27.078125 76.546875 28.632812 C 76.546875 28.632812 66.160156 39.140625 72.910156 50.734375 C 76.597656 57.0625 82.367188 66.421875 82.367188 66.421875 L 82.214844 61.820312 C 82.214844 61.820312 76.769531 40.636719 82.210938 36.578125 " fill-opacity="1" fill-rule="nonzero"/><path fill="#f68c82" d="M 82.277344 52.992188 C 83.28125 55.167969 82.925781 57.464844 81.484375 58.128906 C 80.042969 58.792969 78.066406 57.570312 77.0625 55.394531 C 76.066406 53.222656 76.421875 50.921875 77.863281 50.261719 C 79.300781 49.597656 81.28125 50.820312 82.277344 52.992188 " fill-opacity="1" fill-rule="nonzero"/><path fill="#f68c82" d="M 59.890625 140.378906 C 59.890625 140.378906 61.652344 142.449219 65.265625 138.523438 C 68.890625 134.601562 67.417969 133.789062 56.839844 137.867188 L 59.890625 140.378906 " fill-opacity="1" fill-rule="nonzero"/><path fill="#f68c82" d="M 60.183594 136.585938 C 60.183594 136.585938 61.5625 135.804688 65.265625 138.523438 C 68.984375 141.242188 70.171875 143.855469 71.488281 146.273438 C 72.480469 148.097656 71.066406 147.457031 70.953125 147.5 C 70.882812 147.523438 71.222656 147.589844 70.90625 148.03125 C 70.710938 148.308594 69.945312 148.707031 69.476562 148.78125 C 69.179688 148.824219 68.148438 148.957031 67.699219 149.019531 C 65.542969 149.324219 61.519531 149.402344 54.539062 143.917969 C 54.539062 143.917969 54.03125 136.992188 60.183594 136.585938 " fill-opacity="1" fill-rule="nonzero"/><path fill="#fab43d" d="M 97.867188 42.898438 C 97.867188 42.898438 80.425781 44.046875 71.050781 38.945312 C 71.050781 38.945312 70.089844 22.835938 87.628906 23.996094 C 87.628906 23.996094 101.527344 24.984375 101.425781 38.386719 C 101.425781 38.386719 108.347656 39.847656 108.699219 40.957031 C 109.050781 42.066406 103.589844 43.015625 97.867188 42.898438 " fill-opacity="1" fill-rule="nonzero"/><path fill="#f7981a" d="M 99.945312 38.746094 C 99.945312 38.746094 97.539062 40.507812 90.277344 41.175781 C 90.277344 41.175781 89.007812 24.332031 79.410156 25.011719 C 79.410156 25.011719 80.742188 23.648438 82.582031 23.425781 C 83.636719 23.300781 89.808594 22.453125 92.761719 24.660156 C 95.714844 26.871094 98.734375 32.003906 99.945312 38.746094 " fill-opacity="1" fill-rule="nonzero"/><path fill="#e5e4e4" d="M 48.898438 109.265625 C 48.898438 109.265625 51.117188 112.015625 50.472656 113.722656 C 49.820312 115.433594 49.222656 119.515625 37.714844 118.402344 C 26.210938 117.285156 27.324219 108.597656 34.671875 106 C 42.023438 103.398438 48.898438 109.265625 48.898438 109.265625 " fill-opacity="1" fill-rule="nonzero"/><path fill="#ffffff" d="M 82.472656 64.640625 C 82.472656 64.640625 82.492188 67.710938 81.964844 68.773438 C 81.433594 69.839844 88.191406 81.71875 88.191406 81.71875 L 73.828125 67.164062 L 82.472656 64.640625 " fill-opacity="1" fill-rule="nonzero"/><path fill="#ffffff" d="M 94.078125 64.640625 C 94.078125 64.640625 94.0625 67.710938 94.585938 68.773438 C 95.113281 69.839844 88.363281 81.71875 88.363281 81.71875 L 102.722656 67.164062 L 94.078125 64.640625 " fill-opacity="1" fill-rule="nonzero"/><path fill="#e66f64" d="M 116.023438 153.335938 C 120.914062 139.5 121.566406 126.179688 121.628906 121.4375 C 124.207031 123.65625 127.761719 124.816406 131.664062 124.949219 C 133.355469 125.011719 135.003906 124.910156 136.613281 124.652344 C 135.3125 133.9375 126.832031 153.140625 121.523438 156.488281 C 115.503906 160.289062 116.023438 153.335938 116.023438 153.335938 " fill-opacity="1" fill-rule="nonzero"/><path fill="#e66f64" d="M 116.148438 157.183594 C 116.148438 157.183594 118.425781 158.664062 115.003906 162.761719 C 111.578125 166.851562 110.585938 165.5 113.265625 154.484375 L 116.148438 157.183594 " fill-opacity="1" fill-rule="nonzero"/><path fill="#e66f64" d="M 114.511719 152.328125 C 114.511719 152.328125 113.007812 152.832031 112.546875 157.40625 C 112.09375 161.984375 113.234375 164.613281 114.15625 167.214844 C 114.847656 169.167969 115.316406 167.6875 115.421875 167.632812 C 115.484375 167.601562 115.316406 167.894531 115.851562 167.953125 C 116.1875 167.992188 117 167.691406 117.363281 167.394531 C 117.59375 167.199219 118.378906 166.519531 118.734375 166.226562 C 120.394531 164.832031 123.550781 162.257812 124.132812 153.398438 C 124.132812 153.398438 118.925781 148.023438 114.511719 152.328125 " fill-opacity="1" fill-rule="nonzero"/><path fill="#bdbcbc" d="M 138.25 119.261719 C 138.25 119.261719 140.824219 121.679688 140.417969 123.457031 C 140.003906 125.242188 139.976562 129.367188 128.433594 129.847656 C 116.875 130.324219 116.785156 121.570312 123.703125 117.984375 C 130.632812 114.398438 138.25 119.261719 138.25 119.261719 " fill-opacity="1" fill-rule="nonzero"/><path fill="#e66f64" d="M 228.117188 112.230469 C 228.117188 112.230469 222.390625 112.789062 218.753906 109.820312 C 218.753906 109.820312 218.289062 109.738281 218.09375 110.433594 C 217.898438 111.128906 219.179688 114.136719 220.550781 115 C 221.925781 115.863281 224.835938 115.246094 224.835938 115.246094 L 228.117188 112.230469 " fill-opacity="1" fill-rule="nonzero"/><path fill="#e66f64" d="M 230.292969 90.496094 C 230.292969 90.496094 235.625 100.945312 225.726562 112.882812 C 225.726562 112.882812 220.652344 121.105469 227.386719 120.472656 C 234.132812 119.835938 242.992188 109.019531 244.1875 97.292969 C 244.871094 90.632812 240.292969 71.261719 230.292969 90.496094 " fill-opacity="1" fill-rule="nonzero"/><path fill="#f7981a" d="M 212.617188 48.375 C 212.617188 48.375 222.527344 50.414062 243.503906 86.582031 C 243.503906 86.582031 244.808594 89.648438 233.996094 91.3125 C 227.421875 92.324219 228.703125 88.863281 212.617188 70.941406 C 212.617188 70.941406 207.757812 46.914062 212.617188 48.375 " fill-opacity="1" fill-rule="nonzero"/><path fill="#f7981a" d="M 228.117188 88.707031 C 228.117188 88.707031 227.984375 92.707031 230.269531 93.707031 C 232.558594 94.707031 245.851562 93.136719 246.40625 91.84375 C 246.960938 90.550781 246.773438 80.667969 242.15625 80.207031 C 237.542969 79.746094 228.117188 88.707031 228.117188 88.707031 " fill-opacity="1" fill-rule="nonzero"/><path fill="#e66f64" d="M 217.496094 117.683594 C 216.179688 120.1875 217.464844 122.777344 219.410156 124.65625 C 221.699219 124.738281 225.816406 126.570312 231.070312 118.933594 C 231.070312 118.933594 231.453125 113.863281 225.230469 112.78125 C 225.230469 112.78125 226.445312 111.160156 222.378906 113.523438 C 221.210938 114.195312 219.707031 114.769531 218.15625 115.273438 C 218.105469 116.097656 217.898438 116.914062 217.496094 117.683594 " fill-opacity="1" fill-rule="nonzero"/><path fill="#bdbcbc" d="M 273.617188 77.894531 C 273.617188 77.894531 235.3125 103.933594 174.082031 125.363281 C 174.082031 125.363281 170.875 133.433594 178.640625 136.003906 C 186.398438 138.582031 239.644531 99.035156 279.632812 87.617188 C 279.632812 87.617188 285.839844 80.253906 273.617188 77.894531 " fill-opacity="1" fill-rule="nonzero"/><path fill="#bdbcbc" d="M 279.632812 87.617188 C 279.632812 87.617188 268.988281 81.472656 273.617188 77.894531 C 274.296875 77.375 280.433594 78.542969 281.265625 82.492188 C 282.402344 87.882812 279.632812 87.617188 279.632812 87.617188 " fill-opacity="1" fill-rule="nonzero"/><path fill="#e0e0e0" d="M 265.613281 87.832031 C 265.613281 87.832031 222.910156 105.765625 158.652344 114.648438 C 158.652344 114.648438 153.914062 121.914062 161.011719 125.976562 C 168.113281 130.035156 228.125 101.820312 269.585938 98.554688 C 269.585938 98.554688 277.128906 92.570312 265.613281 87.832031 " fill-opacity="1" fill-rule="nonzero"/><path fill="#bdbcbc" d="M 269.585938 98.554688 C 269.585938 98.554688 260.367188 90.425781 265.613281 87.832031 C 266.386719 87.453125 272.167969 89.8125 272.199219 93.855469 C 272.246094 99.359375 269.585938 98.554688 269.585938 98.554688 " fill-opacity="1" fill-rule="nonzero"/><path fill="#26285d" d="M 197.011719 249.953125 C 197.011719 249.953125 195.496094 250.710938 195.476562 251.214844 C 195.464844 251.714844 194.6875 258.417969 195.074219 259.59375 C 195.464844 260.765625 215.996094 263.027344 215.996094 263.027344 C 215.996094 263.027344 226.378906 262.527344 227.460938 261.183594 C 228.550781 259.84375 228.082031 258.835938 227.460938 258.667969 C 226.84375 258.5 202.898438 249.367188 202.898438 249.367188 L 197.011719 249.953125 " fill-opacity="1" fill-rule="nonzero"/><path fill="#26285d" d="M 161.476562 249.675781 C 161.476562 249.675781 159.492188 254.863281 159.527344 255.351562 C 159.558594 255.84375 160.015625 263.71875 160.511719 264.816406 C 161.011719 265.914062 174.449219 276.1875 174.449219 276.1875 C 174.449219 276.1875 184.375 278.285156 185.835938 277.441406 C 192.25 273.730469 184.628906 267.140625 184.007812 267.042969 C 183.382812 266.945312 171.746094 254 171.746094 254 L 161.476562 249.675781 " fill-opacity="1" fill-rule="nonzero"/><path fill="#26285d" d="M 201.164062 190.929688 C 201.164062 190.929688 195.507812 200.5625 194.96875 202.507812 C 194.425781 204.449219 195.417969 237.265625 195.417969 250.957031 C 195.417969 250.957031 209.445312 253.285156 207.398438 251.082031 C 205.800781 249.367188 215.566406 197.582031 215.566406 197.582031 L 201.164062 190.929688 " fill-opacity="1" fill-rule="nonzero"/><path fill="#26285d" d="M 217.964844 113.765625 C 217.964844 113.765625 218.175781 172.304688 215.566406 197.582031 C 215.566406 197.582031 199.402344 203.851562 198.027344 198.035156 C 196.652344 192.222656 193.632812 119.398438 193.632812 119.398438 L 217.964844 113.765625 " fill-opacity="1" fill-rule="nonzero"/><path fill="#2e3192" d="M 196.828125 116.015625 C 197.007812 118.753906 217.820312 114.886719 217.023438 117.570312 C 205.800781 155.472656 195.554688 186.515625 192.671875 190.929688 C 178.546875 232.03125 175.007812 245.226562 173.160156 255.324219 C 172.828125 257.128906 162.355469 261.132812 159.523438 256.199219 C 159.523438 256.199219 164.664062 209.214844 171.660156 195.367188 C 175.117188 188.519531 177.476562 120.265625 177.476562 120.265625 C 182.574219 116.878906 189.90625 115.941406 196.828125 116.015625 " fill-opacity="1" fill-rule="nonzero"/><path fill="#fab43d" d="M 194.074219 48.226562 C 194.074219 48.226562 175.59375 52.320312 167.738281 63.019531 C 167.738281 63.019531 184.769531 94.523438 177.476562 120.265625 C 177.476562 120.265625 202.757812 131.859375 217.800781 117.390625 C 217.800781 117.390625 230.199219 71.851562 217.050781 50.933594 C 217.050781 50.933594 209.957031 43.976562 194.074219 48.226562 " fill-opacity="1" fill-rule="nonzero"/><path fill="#fab43d" d="M 197.683594 44.035156 L 200.304688 44.035156 L 207.398438 49.085938 L 200.648438 54.597656 L 197.71875 50.933594 L 197.683594 44.035156 " fill-opacity="1" fill-rule="nonzero"/><path fill="#e66f64" d="M 184.769531 33.367188 C 184.769531 33.367188 187.679688 44.6875 188.085938 51.1875 C 188.085938 51.1875 193.222656 55.773438 197.652344 51.523438 C 197.652344 51.523438 199.367188 34.515625 202.988281 31.910156 C 206.601562 29.304688 184.769531 33.367188 184.769531 33.367188 " fill-opacity="1" fill-rule="nonzero"/><path fill="#f68c82" d="M 171.660156 122.382812 C 171.660156 122.382812 177.070312 118.3125 177.851562 112.835938 C 177.851562 112.835938 178.191406 112.390625 178.910156 112.835938 C 179.636719 113.285156 180.921875 116.914062 180.421875 118.753906 C 179.917969 120.59375 176.902344 122.382812 176.902344 122.382812 L 171.660156 122.382812 " fill-opacity="1" fill-rule="nonzero"/><path fill="#f68c82" d="M 159.316406 98.582031 C 159.316406 98.582031 163.238281 108.390625 174.164062 120.441406 C 174.164062 120.441406 177.976562 128.671875 170.882812 128.320312 C 163.792969 127.960938 147.277344 111.992188 144.675781 105.476562 C 142.085938 98.957031 145.34375 85.160156 159.316406 98.582031 " fill-opacity="1" fill-rule="nonzero"/><path fill="#fab43d" d="M 182.828125 52.054688 C 182.828125 52.054688 165.648438 55.433594 145.34375 94.296875 C 145.34375 94.296875 147.246094 98.402344 158.648438 99.648438 C 165.589844 100.40625 164.425781 86.949219 184.886719 76.289062 C 184.886719 76.289062 187.851562 50.292969 182.828125 52.054688 " fill-opacity="1" fill-rule="nonzero"/><path fill="#f68c82" d="M 175.652344 120.039062 C 175.652344 120.039062 174.140625 118.195312 179.050781 120.765625 C 183.960938 123.335938 193.636719 124.117188 193.632812 126.199219 C 193.632812 128.308594 192.964844 128.429688 191.550781 129.171875 C 191.476562 129.214844 190.582031 130.160156 190.289062 130.738281 C 190.109375 131.097656 188.671875 131.984375 188.128906 132.15625 C 187.789062 132.261719 186.824219 132.886719 186.296875 133.042969 C 183.785156 133.796875 180.191406 133.597656 170.882812 128.320312 C 170.882812 128.320312 168.398438 121.636719 175.652344 120.039062 " fill-opacity="1" fill-rule="nonzero"/><path fill="#f68c82" d="M 188.40625 14.046875 C 188.40625 14.046875 200.347656 8.574219 208.160156 16.183594 C 208.160156 16.183594 211.992188 25.964844 211.15625 33.316406 C 210.328125 40.664062 205.898438 48.9375 200.460938 49.316406 C 200.460938 49.316406 187.796875 47.511719 185.699219 37.003906 C 183.8125 27.542969 184.800781 16.472656 188.40625 14.046875 " fill-opacity="1" fill-rule="nonzero"/><path fill="#2e3192" d="M 207.753906 26.417969 C 207.753906 26.417969 207.980469 33.25 195.617188 34.730469 C 195.617188 34.730469 194.070312 36.636719 199.558594 35.964844 C 205.046875 35.285156 214.675781 30.546875 212.816406 25.957031 C 210.957031 21.371094 207.753906 26.417969 207.753906 26.417969 " fill-opacity="1" fill-rule="nonzero"/><path fill="#2e3192" d="M 186.863281 25.398438 C 186.863281 28.21875 189.695312 32.648438 195.585938 33.054688 C 203.820312 33.617188 209.753906 28.425781 209.753906 25.601562 C 209.753906 22.78125 197.320312 23.0625 193.210938 23.0625 C 189.097656 23.0625 186.863281 22.578125 186.863281 25.398438 " fill-opacity="1" fill-rule="nonzero"/><path fill="#f68c82" d="M 187.960938 32.871094 C 188.835938 35.984375 188.121094 38.914062 186.355469 39.414062 C 184.589844 39.914062 182.441406 37.796875 181.5625 34.679688 C 180.679688 31.566406 181.398438 28.632812 183.171875 28.136719 C 184.933594 27.636719 187.078125 29.757812 187.960938 32.871094 " fill-opacity="1" fill-rule="nonzero"/><path fill="#2e3192" d="M 184.707031 24.203125 C 189.324219 19.617188 195.035156 16.011719 201.78125 15.78125 C 202.753906 15.75 204.742188 15.585938 206.726562 15.6875 C 207.683594 16.851562 208.617188 18.132812 209.753906 19.519531 C 208.867188 19.402344 207.964844 19.175781 207.082031 18.824219 C 207.082031 18.824219 203.289062 19.804688 201.746094 17.433594 C 201.746094 17.433594 199.3125 20.902344 193.886719 19.222656 C 193.886719 19.222656 194.429688 25.625 189.386719 26.546875 C 189.386719 26.546875 188.757812 29.613281 189.902344 31.648438 C 191.042969 33.679688 190.066406 35.496094 189.332031 36.066406 C 188.597656 36.636719 188.597656 34.65625 188.597656 34.65625 C 188.597656 34.65625 187.269531 30.640625 185.511719 30.316406 C 183.746094 29.992188 183.5 30.964844 182.90625 31.265625 C 182.304688 31.566406 181.113281 32.105469 180.410156 30.203125 C 179.929688 28.925781 180.261719 27.46875 180.410156 26.414062 C 181.882812 26.21875 183.359375 25.535156 184.707031 24.203125 " fill-opacity="1" fill-rule="nonzero"/><path fill="#fab43d" d="M 208.792969 30.882812 C 208.792969 30.882812 190.574219 32.753906 180.160156 27.085938 C 180.160156 27.085938 177.917969 8.59375 197.410156 9.878906 C 197.410156 9.878906 212.851562 10.980469 212.738281 25.871094 C 212.738281 25.871094 220.433594 27.492188 220.824219 28.726562 C 221.210938 29.960938 215.140625 31.015625 208.792969 30.882812 " fill-opacity="1" fill-rule="nonzero"/><g clip-path="url(#1607a38927)"><path fill="#f7981a" d="M 211.09375 26.269531 C 211.09375 26.269531 208.425781 28.226562 200.351562 28.96875 C 200.351562 28.96875 198.945312 10.253906 188.277344 11.007812 C 188.277344 11.007812 189.757812 9.496094 191.804688 9.25 C 192.972656 9.109375 199.832031 8.164062 203.109375 10.621094 C 206.394531 13.078125 209.753906 18.78125 211.09375 26.269531 " fill-opacity="1" fill-rule="nonzero"/></g><path fill="#ffffff" d="M 193.628906 52.902344 C 193.613281 53.320312 197.652344 51.523438 197.652344 51.523438 L 201.164062 55.242188 L 199.628906 59.550781 L 197.683594 59.550781 L 194.132812 57.488281 L 193.628906 52.902344 " fill-opacity="1" fill-rule="nonzero"/><path fill="#ffffff" d="M 199.984375 57.867188 C 199.984375 57.867188 212.617188 76.792969 212.617188 110.957031 L 211.140625 117.511719 L 205.296875 112.640625 C 205.296875 112.640625 200.894531 71.464844 196.9375 57.867188 L 199.984375 57.867188 " fill-opacity="1" fill-rule="nonzero"/><path fill="#fab43d" d="M 141.769531 89.964844 C 142.074219 89.578125 163.070312 96.492188 164.546875 98.957031 C 166.023438 101.414062 162.824219 103.015625 162.824219 103.015625 C 162.824219 103.015625 142.757812 107.203125 141.769531 105.355469 C 140.785156 103.507812 137.34375 95.628906 141.769531 89.964844 " fill-opacity="1" fill-rule="nonzero"/><path fill="#fab43d" d="M 195.417969 50.5625 L 195.8125 48.3125 L 183.628906 45.695312 L 182.332031 52.222656 L 194.074219 58.8125 L 195.417969 50.5625 " fill-opacity="1" fill-rule="nonzero"/><path fill="#26285d" d="M 367.769531 302.796875 C 367.769531 302.796875 371.144531 306.183594 373.152344 312.71875 C 378.394531 329.820312 363.183594 322.070312 358.113281 315.578125 C 356.046875 312.929688 354.316406 296.609375 358.703125 295.417969 C 360.417969 294.953125 367.769531 302.796875 367.769531 302.796875 " fill-opacity="1" fill-rule="nonzero"/><path fill="#e66f64" d="M 297.253906 153.457031 C 297.253906 153.457031 303.292969 154.054688 307.128906 150.925781 C 307.128906 150.925781 307.621094 150.832031 307.828125 151.570312 C 308.039062 152.304688 306.679688 155.476562 305.234375 156.386719 C 303.78125 157.292969 300.714844 156.644531 300.714844 156.644531 L 297.253906 153.457031 " fill-opacity="1" fill-rule="nonzero"/><path fill="#e66f64" d="M 294.957031 130.53125 C 294.957031 130.53125 289.328125 141.558594 299.769531 154.15625 C 299.769531 154.15625 305.132812 162.828125 298.019531 162.15625 C 290.910156 161.488281 281.558594 150.074219 280.289062 137.699219 C 279.578125 130.675781 284.40625 110.238281 294.957031 130.53125 " fill-opacity="1" fill-rule="nonzero"/><path fill="#26285d" d="M 313.605469 86.085938 C 313.605469 86.085938 303.148438 88.242188 281.015625 126.398438 C 281.015625 126.398438 279.640625 129.636719 291.042969 131.394531 C 297.988281 132.460938 296.636719 128.804688 313.605469 109.898438 C 313.605469 109.898438 318.730469 84.542969 313.605469 86.085938 " fill-opacity="1" fill-rule="nonzero"/><path fill="#26285d" d="M 297.253906 128.640625 C 297.253906 128.640625 297.386719 132.863281 294.976562 133.917969 C 292.566406 134.972656 278.539062 133.320312 277.953125 131.953125 C 277.367188 130.585938 277.566406 120.160156 282.4375 119.675781 C 287.304688 119.191406 297.253906 128.640625 297.253906 128.640625 " fill-opacity="1" fill-rule="nonzero"/><path fill="#e66f64" d="M 308.457031 159.214844 C 309.847656 161.859375 308.488281 164.59375 306.4375 166.574219 C 304.023438 166.664062 299.675781 168.597656 294.132812 160.539062 C 294.132812 160.539062 293.730469 155.1875 300.292969 154.046875 C 300.292969 154.046875 299.015625 152.332031 303.308594 154.828125 C 304.535156 155.542969 306.125 156.140625 307.757812 156.675781 C 307.816406 157.546875 308.03125 158.40625 308.457031 159.214844 " fill-opacity="1" fill-rule="nonzero"/><path fill="#bdbcbc" d="M 268.292969 140.65625 L 311.640625 133.476562 L 316.824219 160.683594 L 275.566406 169.699219 L 268.292969 140.65625 " fill-opacity="1" fill-rule="nonzero"/><path fill="#bdbcbc" d="M 269.328125 134.925781 L 312.679688 127.75 L 317.863281 154.957031 L 276.605469 163.96875 L 269.328125 134.925781 " fill-opacity="1" fill-rule="nonzero"/><path fill="#26285d" d="M 330.074219 298.78125 C 330.074219 298.78125 331.667969 299.574219 331.691406 300.109375 C 331.703125 300.640625 332.523438 307.710938 332.117188 308.953125 C 331.703125 310.1875 310.039062 312.574219 310.039062 312.574219 C 310.039062 312.574219 299.085938 312.046875 297.941406 310.628906 C 296.796875 309.214844 297.285156 308.152344 297.941406 307.976562 C 298.59375 307.796875 323.855469 298.160156 323.855469 298.160156 L 330.074219 298.78125 " fill-opacity="1" fill-rule="nonzero"/><path fill="#26285d" d="M 325.6875 236.503906 C 325.6875 236.503906 331.65625 246.664062 332.226562 248.71875 C 332.800781 250.769531 331.753906 285.394531 331.753906 299.839844 C 331.753906 299.839844 316.949219 302.296875 319.113281 299.96875 C 320.796875 298.160156 310.492188 243.519531 310.492188 243.519531 L 325.6875 236.503906 " fill-opacity="1" fill-rule="nonzero"/><path fill="#26285d" d="M 307.964844 155.082031 C 307.964844 155.082031 307.742188 216.851562 310.492188 243.519531 C 310.492188 243.519531 327.546875 250.132812 329 244 C 330.453125 237.867188 333.632812 161.027344 333.632812 161.027344 L 307.964844 155.082031 " fill-opacity="1" fill-rule="nonzero"/><path fill="#2e3192" d="M 330.269531 157.457031 C 330.074219 160.34375 308.113281 156.265625 308.953125 159.101562 C 320.796875 199.085938 331.609375 231.839844 334.644531 236.503906 C 349.554688 279.871094 353.289062 293.792969 355.238281 304.445312 C 355.585938 306.355469 366.636719 310.574219 369.625 305.371094 C 369.625 305.371094 364.207031 255.796875 356.824219 241.179688 C 353.175781 233.960938 350.683594 161.941406 350.683594 161.941406 C 345.304688 158.371094 337.570312 157.378906 330.269531 157.457031 " fill-opacity="1" fill-rule="nonzero"/><path fill="#2e3192" d="M 333.167969 85.929688 C 333.167969 85.929688 352.667969 90.25 360.960938 101.539062 C 360.960938 101.539062 354.40625 134.253906 350.683594 161.941406 C 350.683594 161.941406 324.003906 174.175781 308.136719 158.910156 C 308.136719 158.910156 295.054688 110.863281 308.929688 88.789062 C 308.929688 88.789062 316.414062 81.449219 333.167969 85.929688 " fill-opacity="1" fill-rule="nonzero"/><path fill="#fab43d" d="M 324.929688 84.546875 C 313.945312 83.886719 308.929688 88.789062 308.929688 88.789062 C 295.054688 110.863281 300.101562 162.195312 300.101562 162.195312 C 301.113281 163.171875 309.445312 168.9375 310.539062 169.699219 C 308.320312 121.644531 316.53125 92.90625 324.929688 84.546875 " fill-opacity="1" fill-rule="nonzero"/><path fill="#fab43d" d="M 359.699219 109.328125 C 352.617188 108.578125 350.980469 99.941406 354.796875 95.550781 C 349.285156 91.890625 343.066406 89.015625 339.199219 87.691406 C 330.707031 90.691406 318.035156 110.390625 324.929688 171.941406 C 338.027344 173.359375 356.542969 166.582031 356.542969 166.582031 C 356.417969 149.308594 355.425781 127.875 361.363281 110.53125 C 360.765625 110.175781 360.226562 109.761719 359.699219 109.328125 " fill-opacity="1" fill-rule="nonzero"/><path fill="#fab43d" d="M 313.585938 113.140625 C 316.414062 98.398438 320.640625 88.8125 324.929688 84.546875 C 313.945312 83.886719 308.929688 88.789062 308.929688 88.789062 C 305.628906 94.039062 303.410156 100.960938 301.929688 108.441406 C 305.4375 110.695312 309.582031 112.070312 313.585938 113.140625 " fill-opacity="1" fill-rule="nonzero"/><path fill="#ffffff" d="M 299.238281 137.746094 C 299.1875 141.167969 299.214844 144.414062 299.289062 147.339844 C 302.355469 149.410156 306.125 150.9375 310.179688 152.046875 C 310.207031 148.347656 310.3125 144.804688 310.460938 141.390625 C 306.597656 140.511719 302.832031 139.328125 299.238281 137.746094 " fill-opacity="1" fill-rule="nonzero"/><path fill="#ffffff" d="M 310.824219 135.097656 C 311.214844 129.609375 311.765625 124.539062 312.445312 119.894531 C 308.324219 118.703125 304.363281 117.152344 300.816406 115.113281 C 300.085938 120.378906 299.664062 125.75 299.433594 130.902344 C 303.039062 132.753906 306.863281 134.113281 310.824219 135.097656 " fill-opacity="1" fill-rule="nonzero"/><path fill="#fab43d" d="M 338.640625 117.246094 C 345.441406 116.949219 352.960938 116.460938 360.058594 114.820312 C 360.449219 113.371094 360.875 111.9375 361.363281 110.53125 C 360.765625 110.175781 360.226562 109.761719 359.699219 109.328125 C 352.617188 108.578125 350.980469 99.941406 354.796875 95.550781 C 349.285156 91.890625 343.066406 89.015625 339.199219 87.691406 C 334.171875 89.46875 327.683594 97.121094 324.652344 115.839844 C 329.269531 116.804688 333.945312 117.449219 338.640625 117.246094 " fill-opacity="1" fill-rule="nonzero"/><path fill="#ffffff" d="M 333.601562 137.367188 C 341.460938 137.292969 349.1875 136.402344 356.902344 135.066406 C 357.21875 130.585938 357.707031 126.136719 358.492188 121.816406 C 350.777344 123.460938 342.785156 123.945312 335.761719 123.515625 C 332.070312 123.296875 327.988281 122.929688 323.800781 122.3125 C 323.347656 126.695312 323.058594 131.582031 322.984375 137.007812 C 326.523438 137.296875 330.082031 137.398438 333.601562 137.367188 " fill-opacity="1" fill-rule="nonzero"/><path fill="#ffffff" d="M 353.464844 142 C 344.605469 143.289062 335.734375 144.023438 326.78125 143.542969 C 325.515625 143.476562 324.257812 143.378906 323 143.273438 C 323.054688 146.753906 323.179688 150.40625 323.40625 154.296875 C 327.640625 154.667969 331.65625 154.738281 334.929688 154.636719 C 341.042969 154.445312 349.066406 154.1875 356.40625 152.683594 C 356.398438 149.035156 356.429688 145.308594 356.5625 141.5625 C 355.519531 141.707031 354.476562 141.851562 353.464844 142 " fill-opacity="1" fill-rule="nonzero"/><path fill="#26285d" d="M 326.59375 81.511719 L 315.019531 88.238281 L 324.011719 91.78125 C 323.796875 94.871094 323.34375 101.875 323.34375 101.875 L 326.046875 92.582031 L 326.230469 92.652344 L 329.328125 88.789062 L 329.363281 81.511719 L 326.59375 81.511719 " fill-opacity="1" fill-rule="nonzero"/><path fill="#e66f64" d="M 342.996094 70.253906 C 342.996094 70.253906 339.921875 82.199219 339.488281 89.054688 C 339.488281 89.054688 330.910156 97.140625 326.230469 92.652344 C 326.230469 92.652344 327.582031 71.46875 323.769531 68.714844 C 319.949219 65.964844 342.996094 70.253906 342.996094 70.253906 " fill-opacity="1" fill-rule="nonzero"/><path fill="#e66f64" d="M 327.25 91.382812 L 326.230469 92.652344 L 323.34375 102.273438 L 330.117188 94.964844 L 335.484375 92.035156 L 327.25 91.382812 " fill-opacity="1" fill-rule="nonzero"/><path fill="#f68c82" d="M 339.152344 49.867188 C 339.152344 49.867188 326.550781 44.09375 318.304688 52.125 C 318.304688 52.125 314.265625 62.441406 315.144531 70.199219 C 316.019531 77.953125 320.695312 86.683594 326.429688 87.082031 C 326.429688 87.082031 339.789062 85.175781 342.007812 74.085938 C 343.996094 64.105469 342.957031 52.425781 339.152344 49.867188 " fill-opacity="1" fill-rule="nonzero"/><path fill="#2e3192" d="M 318.734375 62.921875 C 318.734375 62.921875 318.503906 70.128906 331.542969 71.691406 C 331.542969 71.691406 333.171875 73.703125 327.382812 72.992188 C 321.589844 72.277344 311.425781 67.277344 313.394531 62.4375 C 315.359375 57.597656 318.734375 62.921875 318.734375 62.921875 " fill-opacity="1" fill-rule="nonzero"/><path fill="#2e3192" d="M 340.78125 61.847656 C 340.78125 64.824219 337.792969 69.496094 331.574219 69.921875 C 322.882812 70.515625 316.628906 65.039062 316.628906 62.058594 C 316.628906 59.085938 329.746094 59.378906 334.085938 59.378906 C 338.425781 59.378906 340.78125 58.871094 340.78125 61.847656 " fill-opacity="1" fill-rule="nonzero"/><path fill="#f68c82" d="M 339.625 69.730469 C 338.695312 73.015625 339.453125 76.109375 341.316406 76.636719 C 343.179688 77.164062 345.445312 74.929688 346.375 71.640625 C 347.304688 68.351562 346.542969 65.261719 344.679688 64.738281 C 342.816406 64.207031 340.550781 66.445312 339.625 69.730469 " fill-opacity="1" fill-rule="nonzero"/><path fill="#2e3192" d="M 343.058594 60.582031 C 338.183594 55.742188 332.15625 51.941406 325.042969 51.695312 C 324.015625 51.660156 321.914062 51.488281 319.824219 51.601562 C 318.8125 52.824219 317.824219 54.175781 316.628906 55.644531 C 317.558594 55.519531 318.507812 55.28125 319.441406 54.910156 C 319.441406 54.910156 323.449219 55.941406 325.070312 53.441406 C 325.070312 53.441406 327.648438 57.105469 333.367188 55.332031 C 333.367188 55.332031 332.796875 62.085938 338.117188 63.054688 C 338.117188 63.054688 338.773438 66.292969 337.570312 68.4375 C 336.371094 70.585938 337.398438 72.5 338.171875 73.097656 C 338.953125 73.707031 338.949219 71.613281 338.949219 71.613281 C 338.949219 71.613281 340.351562 67.378906 342.207031 67.035156 C 344.070312 66.691406 344.324219 67.71875 344.953125 68.035156 C 345.585938 68.351562 346.84375 68.921875 347.59375 66.921875 C 348.089844 65.566406 347.75 64.027344 347.589844 62.914062 C 346.039062 62.710938 344.476562 61.988281 343.058594 60.582031 " fill-opacity="1" fill-rule="nonzero"/><path fill="#e0e0e0" d="M 317.640625 67.628906 C 317.640625 67.628906 336.863281 69.601562 347.855469 63.625 C 347.855469 63.625 350.214844 44.117188 329.652344 45.472656 C 329.652344 45.472656 313.359375 46.625 313.476562 62.347656 C 313.476562 62.347656 305.355469 64.058594 304.945312 65.355469 C 304.535156 66.660156 310.941406 67.773438 317.640625 67.628906 " fill-opacity="1" fill-rule="nonzero"/><path fill="#bdbcbc" d="M 315.210938 62.761719 C 315.210938 62.761719 318.03125 64.832031 326.546875 65.613281 C 326.546875 65.613281 328.03125 45.867188 339.285156 46.660156 C 339.285156 46.660156 337.722656 45.066406 335.566406 44.808594 C 334.328125 44.65625 327.101562 43.664062 323.632812 46.253906 C 320.167969 48.84375 316.632812 54.863281 315.210938 62.761719 " fill-opacity="1" fill-rule="nonzero"/><path fill="#26285d" d="M 330.703125 92.273438 L 329.414062 91.558594 L 323.039062 102.273438 L 332.242188 94.902344 L 330.703125 92.273438 " fill-opacity="1" fill-rule="nonzero"/><path fill="#26285d" d="M 329.832031 93.9375 L 329.414062 91.558594 L 341.222656 81.90625 L 344.535156 89.605469 L 331.246094 102.644531 L 329.832031 93.9375 " fill-opacity="1" fill-rule="nonzero"/><path fill="#2e3192" d="M 354.277344 96.101562 C 354.277344 96.101562 361.292969 100.488281 363.238281 104.253906 C 365.191406 108.019531 365.578125 115.320312 356.617188 117.449219 C 347.652344 119.585938 317.214844 124.128906 313.144531 123.21875 C 309.074219 122.3125 304.285156 114.253906 307.851562 111.65625 C 311.414062 109.0625 338.820312 97.566406 354.277344 96.101562 " fill-opacity="1" fill-rule="nonzero"/><path fill="#2e3192" d="M 298.421875 112.824219 C 298.421875 112.824219 303.460938 106.992188 309.023438 107.632812 C 314.585938 108.273438 322.777344 122.253906 320.796875 125.527344 C 318.816406 128.804688 311.417969 129.527344 308.429688 125.527344 C 305.4375 121.53125 298.421875 112.824219 298.421875 112.824219 " fill-opacity="1" fill-rule="nonzero"/><path fill="#f68c82" d="M 306.597656 110.75 C 306.597656 110.75 316.65625 121.933594 313.652344 123.289062 C 310.644531 124.648438 284.53125 128.265625 254.589844 126.957031 C 254.589844 126.957031 248.984375 122.644531 253.941406 120.882812 C 258.894531 119.121094 295.84375 109.710938 306.597656 110.75 " fill-opacity="1" fill-rule="nonzero"/><path fill="#f68c82" d="M 243.777344 122.273438 C 244.363281 122.046875 260.058594 118.613281 264.050781 119.976562 C 268.046875 121.34375 260.914062 132.691406 250.871094 132.894531 C 245.089844 133.007812 238.46875 124.320312 243.777344 122.273438 " fill-opacity="1" fill-rule="nonzero"/><path fill="#f68c82" d="M 231.289062 124.527344 C 231.289062 124.527344 248.855469 121.226562 252.285156 120.621094 C 255.714844 120.015625 252.285156 122.574219 252.285156 122.574219 L 247.265625 125.582031 C 247.265625 125.582031 228.957031 131.097656 231.289062 124.527344 " fill-opacity="1" fill-rule="nonzero"/><path fill="#ffffff" d="M 319.761719 105.5625 C 319.761719 105.855469 319.546875 106.089844 319.285156 106.089844 C 319.027344 106.089844 318.816406 105.855469 318.816406 105.5625 C 318.816406 105.269531 319.027344 105.035156 319.285156 105.035156 C 319.546875 105.035156 319.761719 105.269531 319.761719 105.5625 " fill-opacity="1" fill-rule="nonzero"/><path fill="#ffffff" d="M 316.824219 128.265625 C 316.824219 128.554688 316.613281 128.792969 316.355469 128.792969 C 316.09375 128.792969 315.886719 128.554688 315.886719 128.265625 C 315.886719 127.972656 316.09375 127.734375 316.355469 127.734375 C 316.613281 127.734375 316.824219 127.972656 316.824219 128.265625 " fill-opacity="1" fill-rule="nonzero"/><path fill="#ffffff" d="M 315.886719 138.421875 C 315.886719 138.710938 315.675781 138.949219 315.414062 138.949219 C 315.15625 138.949219 314.945312 138.710938 314.945312 138.421875 C 314.945312 138.128906 315.15625 137.894531 315.414062 137.894531 C 315.675781 137.894531 315.886719 138.128906 315.886719 138.421875 " fill-opacity="1" fill-rule="nonzero"/><path fill="#ffffff" d="M 315.886719 149.140625 C 315.886719 149.429688 315.675781 149.667969 315.414062 149.667969 C 315.15625 149.667969 314.945312 149.429688 314.945312 149.140625 C 314.945312 148.847656 315.15625 148.609375 315.414062 148.609375 C 315.675781 148.609375 315.886719 148.847656 315.886719 149.140625 " fill-opacity="1" fill-rule="nonzero"/><path fill="#ffffff" d="M 315.414062 160.683594 C 315.414062 160.976562 315.199219 161.214844 314.945312 161.214844 C 314.683594 161.214844 314.472656 160.976562 314.472656 160.683594 C 314.472656 160.394531 314.683594 160.15625 314.945312 160.15625 C 315.199219 160.15625 315.414062 160.394531 315.414062 160.683594 " fill-opacity="1" fill-rule="nonzero"/></svg>